<svg width="84" height="84" viewBox="0 0 84 84" fill="none" xmlns="http://www.w3.org/2000/svg">
<g filter="url(#filter0_d)">
<path d="M78.1905 28.96L78.3087 28.979H78.4169C78.4332 28.997 78.465 29.0418 78.4849 29.1215C78.5073 29.2117 78.5061 29.3163 78.4724 29.4179C78.4414 29.5113 78.3747 29.6282 78.223 29.7454L78.1357 29.8128L78.0592 29.8923L60.9825 47.636L60.4622 48.1766L60.5828 48.9172L64.6148 73.687L64.6207 73.7231L64.6283 73.759C64.6671 73.9407 64.5904 74.2016 64.3554 74.3903C64.2491 74.4758 64.1661 74.4966 64.1382 74.4996C64.1308 74.5003 64.1429 74.5039 64.1339 74.4972L64.0576 74.4416L63.975 74.3959L42.8663 62.7255L42.1405 62.3242L41.4147 62.7255L20.3366 74.379C20.1163 74.4851 19.9543 74.4958 19.8474 74.4839C19.7311 74.4709 19.6231 74.4247 19.5289 74.3485C19.3153 74.1758 19.2567 73.935 19.2919 73.7819L19.3019 73.7381L19.3093 73.6939L23.4599 48.9241L23.5852 48.1766L23.0577 47.6323L5.86244 29.8886L5.81189 29.8364L5.75654 29.7894C5.59154 29.6492 5.53721 29.5292 5.51608 29.4496C5.49269 29.3616 5.49216 29.2521 5.53258 29.1253C5.61912 28.8537 5.8362 28.6572 6.03278 28.594L29.6677 25.1526L30.4465 25.0392L30.7958 24.334L41.943 1.82682L41.9744 1.76354L41.9996 1.69759C42.0297 1.61907 42.0688 1.58091 42.1087 1.55551C42.1572 1.5246 42.2303 1.5 42.3184 1.5C42.4065 1.5 42.4795 1.5246 42.5281 1.55551C42.568 1.58091 42.6071 1.61907 42.6371 1.69759L42.6578 1.75156L42.6826 1.80379L53.3555 24.3109L53.6937 25.024L54.4729 25.1492L78.1905 28.96Z" stroke="#1FAE68" stroke-width="3"/>
</g>
<defs>
<filter id="filter0_d" x="0" y="0" width="84" height="84" filterUnits="userSpaceOnUse" color-interpolation-filters="sRGB">
<feFlood flood-opacity="0" result="BackgroundImageFix"/>
<feColorMatrix in="SourceAlpha" type="matrix" values="0 0 0 0 0 0 0 0 0 0 0 0 0 0 0 0 0 0 127 0"/>
<feOffset dy="4"/>
<feGaussianBlur stdDeviation="2"/>
<feColorMatrix type="matrix" values="0 0 0 0 0 0 0 0 0 0 0 0 0 0 0 0 0 0 0.25 0"/>
<feBlend mode="normal" in2="BackgroundImageFix" result="effect1_dropShadow"/>
<feBlend mode="normal" in="SourceGraphic" in2="effect1_dropShadow" result="shape"/>
</filter>
</defs>
</svg>
