<svg width="56" height="56" viewBox="0 0 56 56" fill="none" xmlns="http://www.w3.org/2000/svg">
<path d="M52.5658 4.48438H3.4342C1.54065 4.48438 0 6.02502 0 7.91858V40.9041C0 42.7981 1.54065 44.3387 3.4342 44.3387H9.63525C10.0916 44.3387 10.4615 43.9688 10.4615 43.5125C10.4615 43.0562 10.0916 42.6866 9.63525 42.6866H3.4342C2.45154 42.6866 1.65216 41.8872 1.65216 40.9041V7.91858C1.65216 6.93591 2.45154 6.13654 3.4342 6.13654H52.5658C53.5485 6.13654 54.3483 6.93591 54.3483 7.91858V40.9041C54.3483 41.8872 53.5485 42.6866 52.5658 42.6866H37.0862C36.2787 42.6866 35.52 43.001 34.9492 43.5718L28.969 49.552C28.4345 50.0861 27.5655 50.0861 27.031 49.552L21.0508 43.5718C20.48 43.001 19.7213 42.6866 18.9138 42.6866H13.0771C12.6208 42.6866 12.2509 43.0562 12.2509 43.5125C12.2509 43.9688 12.6208 44.3387 13.0771 44.3387H18.9138C19.2799 44.3387 19.6238 44.481 19.8823 44.7399L25.8629 50.7205C26.4521 51.3093 27.2263 51.6041 28 51.6041C28.7737 51.6041 29.5479 51.3093 30.1371 50.7205L36.1177 44.7399C36.3762 44.481 36.7201 44.3387 37.0862 44.3387H52.5658C54.4594 44.3387 56 42.7981 56 40.9041V7.91858C56 6.02502 54.4594 4.48438 52.5658 4.48438Z" fill="#FF8D8D"/>
<path d="M50.7171 12.7593C51.1734 12.7593 51.543 12.3897 51.543 11.9334V10.0591C51.543 9.31482 50.938 8.70984 50.1937 8.70984H5.80627C5.06201 8.70984 4.45703 9.31482 4.45703 10.0591V38.6483C4.45703 39.3921 5.06201 39.9975 5.80627 39.9975H19.7221C20.8488 39.9975 21.9083 40.4363 22.7047 41.2327L27.1011 45.629C27.3557 45.8837 27.6949 46.0242 28.0551 46.0242C28.4157 46.0242 28.7545 45.8841 29.0092 45.629L33.4051 41.2331C34.2019 40.4363 35.261 39.9975 36.3881 39.9975H50.1937C50.938 39.9975 51.5434 39.3921 51.5434 38.6483V15.3475C51.5434 14.8912 51.1734 14.5217 50.7171 14.5217C50.2608 14.5217 49.8912 14.8912 49.8912 15.3475V38.3453H36.3881C34.8197 38.3453 33.3457 38.9559 32.237 40.065L28.0551 44.2465L23.8728 40.0646C22.7645 38.9559 21.2901 38.3453 19.7221 38.3453H6.10876V10.3616H49.8912V11.9334C49.8912 12.3897 50.2608 12.7593 50.7171 12.7593Z" fill="#FF8D8D"/>
<path d="M36.0307 16.8168C34.7421 15.5287 32.646 15.5287 31.3609 16.8138L28.0002 20.1408L24.6424 16.8168C23.3543 15.5287 21.2582 15.5287 19.9696 16.8168C18.6815 18.105 18.6815 20.201 19.9726 21.4922L23.3043 24.7897L20.0265 28.035C19.3865 28.6682 19.0331 29.5146 19.0306 30.4182C19.0284 31.3214 19.3775 32.1695 20.0145 32.8065C20.6451 33.4371 21.4753 33.7524 22.3058 33.7524C23.1304 33.7524 23.9558 33.441 24.5852 32.818L28.0002 29.4381L31.4151 32.818C32.6785 34.0686 34.7289 34.063 35.9862 32.8065C36.6228 32.1695 36.9719 31.3214 36.9698 30.4182C36.9676 29.5146 36.6139 28.6682 35.9739 28.035L32.696 24.7897L36.0307 21.4896C37.3188 20.201 37.3188 18.105 36.0307 16.8168ZM34.8652 20.3185L31.2511 23.8959C31.0105 24.1338 30.8781 24.4513 30.8781 24.7901C30.8781 25.1285 31.0105 25.4459 31.2511 25.6839L34.8117 29.2091C35.1369 29.5308 35.3163 29.9619 35.3176 30.4225C35.3189 30.883 35.1412 31.315 34.8177 31.6384C34.2016 32.2545 33.1963 32.2571 32.5772 31.644L28.8854 27.9897C28.3971 27.5065 27.6028 27.5065 27.1149 27.9897L23.4226 31.644C22.8036 32.2571 21.7987 32.2545 21.1822 31.638C20.8587 31.3146 20.6814 30.883 20.6823 30.4225C20.6836 29.9619 20.863 29.5308 21.1886 29.2091L24.7488 25.6839C24.9894 25.4459 25.1218 25.1285 25.1218 24.7901C25.1218 24.4513 24.9894 24.1338 24.7488 23.8959L21.1377 20.3215C20.4939 19.6772 20.4939 18.6292 21.1377 17.9849C21.4595 17.6632 21.882 17.5021 22.305 17.5021C22.7288 17.5021 23.1531 17.6641 23.4769 17.9879L27.1145 21.5892C27.6028 22.0724 28.3971 22.0724 28.8854 21.5892L32.526 17.9853C33.1698 17.3411 34.2183 17.3411 34.8622 17.9853C35.5064 18.6292 35.5064 19.6772 34.8652 20.3185Z" fill="#FF8D8D"/>
</svg>
