<svg width="10" height="14" viewBox="0 0 10 14" fill="none" xmlns="http://www.w3.org/2000/svg">
<path d="M4.99993 0C2.42677 0 0.333252 2.09352 0.333252 4.66668C0.333252 5.43914 0.526381 6.20504 0.893525 6.88436L4.74473 13.8496C4.796 13.9425 4.8937 14 4.99993 14C5.10616 14 5.20386 13.9425 5.25513 13.8496L9.10775 6.88207C9.47347 6.20504 9.6666 5.43911 9.6666 4.66665C9.6666 2.09352 7.57308 0 4.99993 0ZM4.99993 7C3.71335 7 2.6666 5.95325 2.6666 4.66668C2.6666 3.3801 3.71335 2.33335 4.99993 2.33335C6.28651 2.33335 7.33325 3.3801 7.33325 4.66668C7.33325 5.95325 6.28651 7 4.99993 7Z" fill="#BEBEBE"/>
</svg>
