<svg width="56" height="56" viewBox="0 0 56 56" fill="none" xmlns="http://www.w3.org/2000/svg">
<path d="M52.5658 4.48438H3.4342C1.54065 4.48438 0 6.02502 0 7.91858V40.9041C0 42.7981 1.54065 44.3387 3.4342 44.3387H9.63525C10.0916 44.3387 10.4615 43.9688 10.4615 43.5125C10.4615 43.0562 10.0916 42.6866 9.63525 42.6866H3.4342C2.45154 42.6866 1.65216 41.8872 1.65216 40.9041V7.91858C1.65216 6.93591 2.45154 6.13654 3.4342 6.13654H52.5658C53.5485 6.13654 54.3483 6.93591 54.3483 7.91858V40.9041C54.3483 41.8872 53.5485 42.6866 52.5658 42.6866H37.0862C36.2787 42.6866 35.52 43.001 34.9492 43.5718L28.969 49.552C28.4345 50.0861 27.5655 50.0861 27.031 49.552L21.0508 43.5718C20.48 43.001 19.7213 42.6866 18.9138 42.6866H13.0771C12.6208 42.6866 12.2509 43.0562 12.2509 43.5125C12.2509 43.9688 12.6208 44.3387 13.0771 44.3387H18.9138C19.2799 44.3387 19.6238 44.481 19.8823 44.7399L25.8629 50.7205C26.4521 51.3093 27.2263 51.6041 28 51.6041C28.7737 51.6041 29.5479 51.3093 30.1371 50.7205L36.1177 44.7399C36.3762 44.481 36.7201 44.3387 37.0862 44.3387H52.5658C54.4594 44.3387 56 42.7981 56 40.9041V7.91858C56 6.02502 54.4594 4.48438 52.5658 4.48438Z" fill="#A9FFD5"/>
<path d="M50.7171 12.7593C51.1734 12.7593 51.543 12.3897 51.543 11.9334V10.0591C51.543 9.31482 50.938 8.70984 50.1937 8.70984H5.80627C5.06201 8.70984 4.45703 9.31482 4.45703 10.0591V38.6483C4.45703 39.3921 5.06201 39.9975 5.80627 39.9975H19.7221C20.8488 39.9975 21.9083 40.4363 22.7047 41.2327L27.1011 45.629C27.3557 45.8837 27.6949 46.0242 28.0551 46.0242C28.4157 46.0242 28.7545 45.8841 29.0092 45.629L33.4051 41.2331C34.2019 40.4363 35.261 39.9975 36.3881 39.9975H50.1937C50.938 39.9975 51.5434 39.3921 51.5434 38.6483V15.3475C51.5434 14.8912 51.1734 14.5217 50.7171 14.5217C50.2608 14.5217 49.8912 14.8912 49.8912 15.3475V38.3453H36.3881C34.8197 38.3453 33.3457 38.9559 32.237 40.065L28.0551 44.2465L23.8728 40.0646C22.7645 38.9559 21.2901 38.3453 19.7221 38.3453H6.10876V10.3616H49.8912V11.9334C49.8912 12.3897 50.2608 12.7593 50.7171 12.7593Z" fill="#A9FFD5"/>
<path d="M37.0913 26.2402C37.412 25.8822 37.6074 25.4096 37.6074 24.8926C37.6074 23.7781 36.7004 22.8711 35.5859 22.8711H31.6625C32.051 21.6919 32.2168 20.1273 32.2168 19.4566V18.7832C32.2168 17.2972 31.0075 16.0879 29.5215 16.0879H28.8477C28.5386 16.0879 28.2691 16.2981 28.194 16.5982L27.827 18.0667C27.3127 20.1232 25.6798 22.3922 23.9898 22.8046C23.6938 22.0553 22.9629 21.5234 22.1094 21.5234H18.0664C17.6945 21.5234 17.3926 21.8253 17.3926 22.1973V34.3262C17.3926 34.6981 17.6945 35 18.0664 35H22.1094C22.913 35 23.6084 34.5288 23.9341 33.8478L26.2494 34.6195C27.0063 34.872 27.7951 35 28.5934 35H34.2383C35.3528 35 36.2598 34.093 36.2598 32.9785C36.2598 32.7157 36.2095 32.4642 36.1178 32.2337C36.9749 31.9997 37.6074 31.214 37.6074 30.2832C37.6074 29.7662 37.412 29.2936 37.0913 28.9355C37.412 28.5775 37.6074 28.1049 37.6074 27.5879C37.6074 27.0708 37.412 26.5983 37.0913 26.2402ZM22.7832 32.9785C22.7832 33.35 22.4809 33.6523 22.1094 33.6523H18.7402V22.8711H22.1094C22.4809 22.8711 22.7832 23.1734 22.7832 23.5449V32.9785ZM34.2383 26.9141H35.5859C35.9574 26.9141 36.2598 27.2164 36.2598 27.5879C36.2598 27.9594 35.9574 28.2617 35.5859 28.2617H34.2383C33.8663 28.2617 33.5645 28.5636 33.5645 28.9355C33.5645 29.3075 33.8663 29.6094 34.2383 29.6094H35.5859C35.9574 29.6094 36.2598 29.9117 36.2598 30.2832C36.2598 30.6547 35.9574 30.957 35.5859 30.957H34.2383C33.8663 30.957 33.5645 31.2589 33.5645 31.6309C33.5645 32.0028 33.8663 32.3047 34.2383 32.3047C34.6098 32.3047 34.9121 32.607 34.9121 32.9785C34.9121 33.35 34.6098 33.6523 34.2383 33.6523H28.5934C27.9402 33.6523 27.2947 33.5477 26.6752 33.341L24.1309 32.4929V24.155C25.1879 23.9542 26.2224 23.2848 27.1563 22.1892C28.0683 21.1191 28.8077 19.7005 29.1343 18.3937L29.3737 17.4355H29.5215C30.2645 17.4355 30.8691 18.0402 30.8691 18.7832V19.4566C30.8691 20.3613 30.5861 22.0966 30.2241 22.8711H28.8477C28.4757 22.8711 28.1738 23.173 28.1738 23.5449C28.1738 23.9169 28.4757 24.2188 28.8477 24.2188H35.5859C35.9574 24.2188 36.2598 24.5211 36.2598 24.8926C36.2598 25.2641 35.9574 25.5664 35.5859 25.5664H34.2383C33.8663 25.5664 33.5645 25.8683 33.5645 26.2402C33.5645 26.6122 33.8663 26.9141 34.2383 26.9141Z" fill="#A9FFD5"/>
<path d="M20.7617 32.3047C21.1339 32.3047 21.4355 32.003 21.4355 31.6309C21.4355 31.2587 21.1339 30.957 20.7617 30.957C20.3896 30.957 20.0879 31.2587 20.0879 31.6309C20.0879 32.003 20.3896 32.3047 20.7617 32.3047Z" fill="#A9FFD5"/>
<path d="M30.1953 12C29.8232 12 29.5215 12.3017 29.5215 12.6738V14.0664C29.5215 14.4385 29.8232 14.7402 30.1953 14.7402C30.5674 14.7402 30.8691 14.4385 30.8691 14.0664V12.6738C30.8691 12.3017 30.5674 12 30.1953 12Z" fill="#A9FFD5"/>
<path d="M27.3365 14.9715L26.3836 14.0186C26.1205 13.7554 25.6938 13.7554 25.4306 14.0186C25.1675 14.2817 25.1675 14.7083 25.4306 14.9715L26.3836 15.9244C26.6467 16.1875 27.0734 16.1876 27.3365 15.9244C27.5996 15.6613 27.5996 15.2346 27.3365 14.9715Z" fill="#A9FFD5"/>
<path d="M34.96 14.0186C34.6969 13.7554 34.2703 13.7554 34.0071 14.0186L33.0542 14.9714C32.791 15.2346 32.791 15.6612 33.0542 15.9244C33.3173 16.1875 33.744 16.1876 34.0071 15.9244L34.96 14.9715C35.2232 14.7083 35.2232 14.2817 34.96 14.0186Z" fill="#A9FFD5"/>
</svg>
