<svg width="33" height="33" viewBox="0 0 33 33" fill="none" xmlns="http://www.w3.org/2000/svg">
    <circle cx="16.5" cy="16.5" r="16" stroke="#EDEDED"/>
    <g  transform="translate(6 , 7)">
        <g clip-path="url(#clip0)">
            <path d="M14.544 19.9998C14.404 19.9998 14.2607 19.9823 14.119 19.9448L1.23318 16.494C0.34985 16.2506 -0.176817 15.3356 0.0548499 14.4523L1.68068 8.39229C1.74068 8.16979 1.96902 8.04063 2.19068 8.09729C2.41318 8.15646 2.54485 8.38563 2.48568 8.60729L0.860683 14.6656C0.74485 15.1073 1.00985 15.5673 1.45235 15.6898L14.3332 19.139C14.7757 19.2556 15.2324 18.9923 15.3474 18.5523L15.9982 16.1406C16.0582 15.9181 16.2865 15.7856 16.509 15.8465C16.7315 15.9065 16.8624 16.1356 16.8032 16.3573L16.1532 18.7656C15.9574 19.5073 15.2824 19.9998 14.544 19.9998Z" fill="#EDEDED"/>
            <path d="M18.3333 14.9998H4.99992C4.08075 14.9998 3.33325 14.2523 3.33325 13.3332V3.33317C3.33325 2.414 4.08075 1.6665 4.99992 1.6665H18.3333C19.2524 1.6665 19.9999 2.414 19.9999 3.33317V13.3332C19.9999 14.2523 19.2524 14.9998 18.3333 14.9998ZM4.99992 2.49984C4.54075 2.49984 4.16659 2.874 4.16659 3.33317V13.3332C4.16659 13.7923 4.54075 14.1665 4.99992 14.1665H18.3333C18.7924 14.1665 19.1666 13.7923 19.1666 13.3332V3.33317C19.1666 2.874 18.7924 2.49984 18.3333 2.49984H4.99992Z" fill="#EDEDED"/>
            <path d="M7.49992 7.49984C6.58075 7.49984 5.83325 6.75234 5.83325 5.83317C5.83325 4.914 6.58075 4.1665 7.49992 4.1665C8.41909 4.1665 9.16659 4.914 9.16659 5.83317C9.16659 6.75234 8.41909 7.49984 7.49992 7.49984ZM7.49992 4.99984C7.04075 4.99984 6.66659 5.374 6.66659 5.83317C6.66659 6.29234 7.04075 6.6665 7.49992 6.6665C7.95909 6.6665 8.33326 6.29234 8.33326 5.83317C8.33326 5.374 7.95909 4.99984 7.49992 4.99984Z" fill="#EDEDED"/>
            <path d="M3.80848 14.1082C3.70181 14.1082 3.59514 14.0673 3.51348 13.9865C3.35098 13.824 3.35098 13.5598 3.51348 13.3973L7.44931 9.4615C7.92098 8.98984 8.74514 8.98984 9.21681 9.4615L10.3885 10.6332L13.6318 6.7415C13.8676 6.459 14.2143 6.29484 14.5835 6.2915H14.5926C14.9576 6.2915 15.3035 6.44984 15.5418 6.72734L19.9001 11.8123C20.0501 11.9865 20.0301 12.2498 19.8551 12.3998C19.681 12.5498 19.4185 12.5307 19.2676 12.3548L14.9093 7.26984C14.8285 7.1765 14.7168 7.12484 14.5926 7.12484C14.506 7.11734 14.3535 7.17734 14.2726 7.27484L10.7368 11.5173C10.6618 11.6073 10.5526 11.6615 10.4351 11.6665C10.3168 11.6748 10.2043 11.6282 10.1218 11.5448L8.62764 10.0507C8.47014 9.894 8.19598 9.894 8.03848 10.0507L4.10264 13.9865C4.02181 14.0673 3.91514 14.1082 3.80848 14.1082Z" fill="#EDEDED"/>
        </g>
        <defs>
            <clipPath id="clip0">
                <rect width="20" height="20" fill="white"/>
            </clipPath>
        </defs>
    </g>
</svg>
