<svg width="28" height="32" viewBox="0 0 28 32" fill="none" xmlns="http://www.w3.org/2000/svg">
<path d="M7.76645 12.2054C11.4105 10.9961 14.6715 11.6124 14.6715 11.6124L14.6826 12.5622C14.6988 14.0969 15.1185 14.2368 15.1185 14.2368C16.1108 15.0122 17.011 14.1831 17.011 14.1831C17.011 14.1831 23.3585 9.51013 23.5247 9.38748C23.6909 9.26381 24.6732 8.65461 24.6762 7.05709C24.6772 5.45755 23.3281 4.69528 23.3281 4.69528C23.3281 4.69528 18.0875 1.12722 17.0312 0.408544C15.973 -0.31115 15.38 0.137898 15.38 0.137898C14.6015 0.646752 14.6725 1.31374 14.6725 1.31374V3.17886C8.78315 4.38814 4.66265 7.96532 4.66265 7.96532C-1.00063 12.7812 0.55837 19.4733 0.55837 19.4733C0.55837 19.4733 0.572562 19.7734 1.14629 19.7734C1.79807 19.7734 1.80516 19.372 1.80516 19.372C2.07479 17.0933 4.12237 13.4147 7.76645 12.2054Z" fill="#FFFCFC"/>
<path d="M27.4424 12.5236C27.4424 12.5236 27.4272 12.2256 26.8565 12.2256C26.2017 12.2256 26.1976 12.627 26.1976 12.627C25.926 14.9047 23.8804 18.5822 20.2353 19.7935C16.5892 21.0018 13.3303 20.3855 13.3303 20.3855L13.3192 19.4357C13.304 17.897 12.8853 17.7611 12.8853 17.7611C11.893 16.9847 10.9908 17.8149 10.9908 17.8149C10.9908 17.8149 4.64434 22.4888 4.4781 22.6115C4.31085 22.7341 3.33268 23.3433 3.32862 24.9429C3.32457 26.5394 4.67374 27.3037 4.67374 27.3037C4.67374 27.3037 9.9123 30.8707 10.9695 31.5904C12.0268 32.3111 12.6218 31.8631 12.6218 31.8631C13.3993 31.3522 13.3293 30.6903 13.3293 30.6903V28.8221C19.2197 27.6149 23.3391 24.0336 23.3391 24.0336C29.0024 19.2167 27.4424 12.5236 27.4424 12.5236Z" fill="#FFFCFC"/>
</svg>
