<svg width="12" height="12" viewBox="0 0 12 12" fill="none" xmlns="http://www.w3.org/2000/svg">
<path d="M1.95886 3.92017H0.391782C0.176344 3.92017 0 4.09562 0 4.31192V11.3638C0 11.58 0.175571 11.7555 0.391782 11.7555H1.95886C2.17507 11.7555 2.35065 11.58 2.35065 11.3638V4.31192C2.35065 4.09562 2.17428 3.92017 1.95886 3.92017Z" fill="#A6A6A6"/>
<path d="M11.0218 3.91992C10.9587 3.90923 8.0045 3.91992 8.0045 3.91992L8.41714 2.79417C8.70186 2.01665 8.51752 0.829469 7.72752 0.407405C7.47029 0.269967 7.1109 0.200944 6.82114 0.273882C6.65497 0.315694 6.50893 0.42571 6.42188 0.573109C6.32178 0.742632 6.33211 0.940516 6.29647 1.12848C6.20607 1.60525 5.98079 2.05856 5.63192 2.3988C5.02367 2.99203 3.13416 4.70344 3.13416 4.70344V10.9718H9.66369C10.5448 10.9723 11.1222 9.98842 10.6876 9.21988C11.2056 8.88812 11.3828 8.18933 11.0794 7.65279C11.5974 7.32104 11.7745 6.62225 11.4712 6.08571C12.3649 5.5133 12.0661 4.09655 11.0218 3.91992Z" fill="#A6A6A6"/>
</svg>
