<svg width="17" height="18" viewBox="0 0 17 18" fill="none" xmlns="http://www.w3.org/2000/svg">
<path d="M16.9133 0.737184C16.8377 0.666906 16.73 0.650601 16.6387 0.695427L0.146922 8.80872C0.0581353 8.85241 0.000960372 8.94621 -0.000106893 9.04985C-0.00117416 9.15349 0.0541203 9.24858 0.142043 9.29426L4.80919 11.7194C4.89477 11.7639 4.99683 11.7539 5.07326 11.6934L9.61102 8.10233L6.04869 11.9822C5.99787 12.0375 5.97195 12.1133 5.97754 12.1903L6.33223 17.0812C6.34011 17.1896 6.40872 17.2822 6.50624 17.3162C6.53232 17.3252 6.5591 17.3296 6.58558 17.3296C6.6582 17.3296 6.72884 17.2966 6.77799 17.2364L9.25516 14.197L12.3174 15.7462C12.3839 15.7799 12.4609 15.7813 12.5284 15.7502C12.596 15.719 12.6474 15.6584 12.6694 15.584L16.9882 1.02007C17.0184 0.918368 16.989 0.807462 16.9133 0.737184Z" fill="#FCBC83"/>
</svg>
