<svg width="13" height="15" viewBox="0 0 13 15" fill="none" xmlns="http://www.w3.org/2000/svg">
<path d="M3.5781 5.72104C5.28626 5.15418 6.81482 5.44307 6.81482 5.44307L6.82005 5.88829C6.82765 6.60767 7.02436 6.67324 7.02436 6.67324C7.48953 7.03673 7.91147 6.64805 7.91147 6.64805C7.91147 6.64805 10.8869 4.45761 10.9648 4.40012C11.0427 4.34215 11.5031 4.05659 11.5045 3.30775C11.505 2.55797 10.8726 2.20065 10.8726 2.20065C10.8726 2.20065 8.41608 0.528127 7.92097 0.191245C7.42491 -0.146111 7.14695 0.0643805 7.14695 0.0643805C6.78204 0.302906 6.8153 0.615554 6.8153 0.615554V1.48983C4.05468 2.05668 2.12319 3.73349 2.12319 3.73349C-0.531468 5.99092 0.199312 9.12786 0.199312 9.12786C0.199312 9.12786 0.205965 9.2685 0.474899 9.2685C0.78042 9.2685 0.783746 9.08034 0.783746 9.08034C0.910136 8.01221 1.86994 6.28789 3.5781 5.72104Z" fill="#7972B4"/>
<path d="M12.8014 5.87016C12.8014 5.87016 12.7943 5.73047 12.5267 5.73047C12.2198 5.73047 12.2179 5.91863 12.2179 5.91863C12.0906 6.98629 11.1317 8.71013 9.42307 9.27794C7.71396 9.84432 6.18635 9.55542 6.18635 9.55542L6.18113 9.11021C6.174 8.38893 5.97776 8.32526 5.97776 8.32526C5.51259 7.9613 5.08971 8.35044 5.08971 8.35044C5.08971 8.35044 2.1148 10.5414 2.03687 10.5989C1.95847 10.6563 1.49995 10.9419 1.49805 11.6917C1.49615 12.4401 2.12857 12.7983 2.12857 12.7983C2.12857 12.7983 4.58415 14.4704 5.07973 14.8077C5.57531 15.1456 5.85422 14.9355 5.85422 14.9355C6.21866 14.6961 6.18588 14.3858 6.18588 14.3858V13.5101C8.94697 12.9442 10.878 11.2655 10.878 11.2655C13.5326 9.00758 12.8014 5.87016 12.8014 5.87016Z" fill="#7972B4"/>
</svg>
