<svg width="5" height="19" viewBox="0 0 5 19" fill="none" xmlns="http://www.w3.org/2000/svg">
<path d="M2.49998 15.1209C3.22734 15.1209 3.8328 14.5636 3.89406 13.8387L4.83972 2.54449C4.89477 1.88945 4.67267 1.2419 4.22804 0.758264C3.78396 0.275245 3.15684 0 2.49998 0C1.84311 0 1.21599 0.275245 0.771871 0.758264C0.327169 1.2419 0.105187 1.88945 0.160236 2.54449L1.10589 13.8387C1.16715 14.5636 1.77261 15.1209 2.49998 15.1209Z" fill="#F494AB"/>
<path d="M2.50006 15.9521C1.65825 15.9521 0.976074 16.6343 0.976074 17.4761C0.976074 18.3179 1.65825 19 2.50006 19C3.34186 19 4.02404 18.3179 4.02404 17.4761C4.02404 16.6343 3.34186 15.9521 2.50006 15.9521Z" fill="#F494AB"/>
</svg>
