<svg width="13" height="11" viewBox="0 0 13 11" fill="none" xmlns="http://www.w3.org/2000/svg">
<path d="M12.496 0.960462C12.495 0.430171 12.0363 0.000568861 11.4704 0H11.4698L1.52496 0.00580237C0.95876 0.00671254 0.500243 0.436884 0.5 0.967516L0.504127 7.25546C0.504492 7.78609 0.963616 8.21604 1.52969 8.21604H1.53042L4.92675 8.21399C5.00287 8.21399 5.07352 8.2513 5.11285 8.31229L6.46073 10.4L7.80569 8.31081C7.84514 8.2496 7.91567 8.21228 7.99191 8.21217L11.475 8.21023C12.0412 8.20921 12.4998 7.77904 12.5 7.24841L12.496 0.960462ZM10.4625 5.71579H2.53765C2.41747 5.71579 2.32011 5.62454 2.32011 5.51191C2.32011 5.39939 2.41747 5.30803 2.53765 5.30803H10.4625C10.5827 5.30803 10.68 5.39939 10.68 5.51191C10.68 5.62454 10.5827 5.71579 10.4625 5.71579ZM10.4625 4.25951H2.53765C2.41747 4.25951 2.32011 4.16826 2.32011 4.05563C2.32011 3.94311 2.41747 3.85175 2.53765 3.85175H10.4625C10.5827 3.85175 10.68 3.94311 10.68 4.05563C10.68 4.16826 10.5827 4.25951 10.4625 4.25951ZM10.4625 2.80323H2.53765C2.41747 2.80323 2.32011 2.71198 2.32011 2.59935C2.32011 2.48683 2.41747 2.39547 2.53765 2.39547H10.4625C10.5827 2.39547 10.68 2.48683 10.68 2.59935C10.68 2.71198 10.5827 2.80323 10.4625 2.80323Z" fill="#A6A6A6"/>
</svg>
