<svg width="10" height="40" viewBox="0 0 10 40" fill="none" xmlns="http://www.w3.org/2000/svg">
<path d="M5.00004 31.8334C6.53133 31.8334 7.80599 30.6602 7.93496 29.1342L9.92581 5.35681C10.0417 3.97779 9.57413 2.61453 8.63808 1.59635C7.70317 0.579464 6.38291 0 5.00004 0C3.61717 0 2.29691 0.579464 1.36192 1.59635C0.425709 2.61453 -0.0416224 3.97779 0.0742704 5.35681L2.06513 29.1342C2.1941 30.6602 3.46875 31.8334 5.00004 31.8334Z" fill="white"/>
<path d="M5.00001 33.5835C3.22778 33.5835 1.79163 35.0196 1.79163 36.7919C1.79163 38.564 3.22778 40.0001 5.00001 40.0001C6.77223 40.0001 8.20839 38.564 8.20839 36.7919C8.20839 35.0196 6.77223 33.5835 5.00001 33.5835Z" fill="white"/>
</svg>
