<svg id="Слой_1" data-name="Слой 1" xmlns="http://www.w3.org/2000/svg" xmlns:xlink="http://www.w3.org/1999/xlink" viewBox="0 0 14 14"><defs><clipPath id="clip-path" transform="translate(-14)"><rect x="16.84" y="3.06" width="8.31" height="7.88" style="fill:none"/></clipPath></defs><path d="M21,0h0a7,7,0,0,1,7,7h0a7,7,0,0,1-7,7h0a7,7,0,0,1-7-7h0A7,7,0,0,1,21,0Z" transform="translate(-14)" style="fill:#f28e31"/><g style="clip-path:url(#clip-path)"><path d="M24.87,10.94H17.25a.27.27,0,1,1,0-.53h7.62a.27.27,0,1,1,0,.53Z" transform="translate(-14)" style="fill:#fff"/><path d="M23.56,6.25a1.6,1.6,0,1,1,1.6-1.59A1.6,1.6,0,0,1,23.56,6.25Z" transform="translate(-14)" style="fill:#fff"/><path d="M23.56,3.59a1.07,1.07,0,1,0,1.07,1.07A1.08,1.08,0,0,0,23.56,3.59Z" transform="translate(-14)" style="fill:#f28e31"/><path d="M18.44,6.25A1.6,1.6,0,1,1,20,4.66,1.6,1.6,0,0,1,18.44,6.25Z" transform="translate(-14)" style="fill:#fff"/><path d="M18.44,3.59a1.07,1.07,0,1,0,1.08,1.07A1.07,1.07,0,0,0,18.44,3.59Z" transform="translate(-14)" style="fill:#f28e31"/><path d="M23.56,5a.27.27,0,0,1-.27-.27v0a.27.27,0,0,1,.53,0v0A.27.27,0,0,1,23.56,5Z" transform="translate(-14)" style="fill:#fff"/><path d="M18.44,5a.27.27,0,0,1-.26-.27v0a.27.27,0,0,1,.53,0v0A.27.27,0,0,1,18.44,5Z" transform="translate(-14)" style="fill:#fff"/></g></svg>