<svg id="Слой_1" data-name="Слой 1" xmlns="http://www.w3.org/2000/svg" viewBox="0 0 15 15"><path d="M21.5,0h0A7.5,7.5,0,0,1,29,7.5h0A7.5,7.5,0,0,1,21.5,15h0A7.5,7.5,0,0,1,14,7.5h0A7.5,7.5,0,0,1,21.5,0Z" transform="translate(-14)" style="fill:#57bb4f"/><path d="M21.56,12.19a3.66,3.66,0,0,1-3.67-3.63.21.21,0,0,1,.21-.21H25a.21.21,0,0,1,.21.21,3.57,3.57,0,0,1-.44,1.72.08.08,0,0,1,0,0A3.69,3.69,0,0,1,21.56,12.19Zm-2.65-1.78a3.28,3.28,0,0,0,5.3,0ZM18.66,10h5.81a3.29,3.29,0,0,0,.33-1.22H18.32A3.12,3.12,0,0,0,18.66,10Zm.84-3.61a.19.19,0,0,1-.1,0l-.94-.48-.93.48a.22.22,0,0,1-.22,0,.22.22,0,0,1-.09-.21l.18-1-.76-.72a.2.2,0,0,1-.05-.22A.22.22,0,0,1,16.76,4l1-.15.46-.93a.22.22,0,0,1,.19-.12.23.23,0,0,1,.2.12l.46.93L20.17,4a.22.22,0,0,1,.17.15.22.22,0,0,1-.05.22l-.76.72.18,1a.22.22,0,0,1-.09.21A.25.25,0,0,1,19.5,6.38Zm-1-1,.1,0,.66.34-.13-.71a.22.22,0,0,1,.06-.19l.53-.51L19,4.27a.22.22,0,0,1-.16-.12l-.33-.65-.32.65a.22.22,0,0,1-.16.12l-.73.1.53.51a.22.22,0,0,1,.06.19l-.13.71.65-.34Zm6.87,1-.1,0-.93-.48-.93.48a.23.23,0,0,1-.23,0,.21.21,0,0,1-.08-.21l.18-1-.76-.72a.23.23,0,0,1-.06-.22A.25.25,0,0,1,22.6,4l1-.15.47-.93a.21.21,0,0,1,.38,0l.47.93L26,4a.23.23,0,0,1,.18.15.23.23,0,0,1-.06.22l-.75.72.18,1a.22.22,0,0,1-.09.21A.28.28,0,0,1,25.33,6.38Zm-1-1,.1,0,.65.34-.12-.71A.2.2,0,0,1,25,4.88l.52-.51-.72-.1a.22.22,0,0,1-.16-.12L24.3,3.5,24,4.15a.27.27,0,0,1-.16.12l-.73.1.53.51a.22.22,0,0,1,.06.19l-.13.71.65-.34Z" transform="translate(-14)" style="fill:#fff"/></svg>