<svg width="10" height="10" viewBox="0 0 10 10" fill="none" xmlns="http://www.w3.org/2000/svg">
<g clip-path="url(#clip0)">
<path d="M9.87977 2.86395L7.09139 0.0755703C6.99073 -0.0251901 6.82729 -0.0251901 6.72663 0.0755703L6.71481 0.0873851C6.54383 0.258312 6.44963 0.48568 6.44963 0.727444C6.44963 0.883202 6.4892 1.03267 6.56272 1.16521L3.64515 3.66915C3.42186 3.46959 3.13686 3.36037 2.83499 3.36037C2.5097 3.36037 2.20391 3.48703 1.97396 3.71703L1.95647 3.73452C1.85571 3.83523 1.85571 3.99857 1.95647 4.09928L3.62694 5.76975L2.00002 7.39662C1.96746 7.4301 1.19739 8.22365 0.691112 8.85514C0.208978 9.45635 0.113635 9.5665 0.108682 9.57218C0.0191689 9.67413 0.0241218 9.82787 0.119929 9.92414C0.170129 9.97455 0.236322 10 0.302722 10C0.36324 10 0.423913 9.97888 0.47272 9.93622C0.477002 9.9325 0.584625 9.83896 1.18975 9.35379C1.82115 8.84751 2.61469 8.07738 2.65076 8.04225L4.27505 6.41796L5.85605 7.99896C5.90641 8.04937 5.97245 8.07455 6.03843 8.07455C6.10442 8.07455 6.17051 8.04937 6.22081 7.99896L6.2383 7.98147C6.4683 7.75153 6.59496 7.44568 6.59496 7.12044C6.59496 6.81858 6.48569 6.53358 6.28618 6.31028L8.79013 3.39272C8.92267 3.46624 9.07213 3.50581 9.22789 3.50581C9.46971 3.50581 9.69702 3.41165 9.86795 3.24062L9.87977 3.22881C9.98053 3.128 9.98053 2.96466 9.87977 2.86395Z" fill="white"/>
</g>
<defs>
<clipPath id="clip0">
<rect width="10" height="10" fill="white"/>
</clipPath>
</defs>
</svg>
