<svg id="Слой_1" data-name="Слой 1" xmlns="http://www.w3.org/2000/svg" xmlns:xlink="http://www.w3.org/1999/xlink" viewBox="0 0 14 14"><defs><clipPath id="clip-path" transform="translate(-14)"><rect x="16.63" y="4" width="8.75" height="7.65" style="fill:none"/></clipPath></defs><path d="M21,0h0a7,7,0,0,1,7,7h0a7,7,0,0,1-7,7h0a7,7,0,0,1-7-7h0A7,7,0,0,1,21,0Z" transform="translate(-14)" style="fill:#f47474"/><g style="clip-path:url(#clip-path)"><path d="M17.74,11.65a.25.25,0,0,1-.11-.48A8.24,8.24,0,0,1,21,10.48a7.39,7.39,0,0,1,3.25.69.25.25,0,0,1,.1.35.26.26,0,0,1-.35.1A6.77,6.77,0,0,0,21,11a7.77,7.77,0,0,0-3.16.64Z" transform="translate(-14)" style="fill:#fff"/><path d="M23.53,8.08a1.81,1.81,0,0,1-1.82-2.14.27.27,0,0,1,.22-.21l3-.4a.27.27,0,0,1,.27.15,1.87,1.87,0,0,1,.19.78,1.84,1.84,0,0,1-1.84,1.82Z" transform="translate(-14)" style="fill:#fff"/><path d="M22.2,6.21v.06a1.32,1.32,0,0,0,1.33,1.3h0a1.31,1.31,0,0,0,1.32-1.31,1.23,1.23,0,0,0-.06-.39Z" transform="translate(-14)" style="fill:#f47474"/><path d="M18.47,8.08h0a1.84,1.84,0,0,1-1.84-1.82,1.87,1.87,0,0,1,.19-.78.27.27,0,0,1,.27-.15l3,.4a.28.28,0,0,1,.22.21,1.81,1.81,0,0,1-1.82,2.14Z" transform="translate(-14)" style="fill:#fff"/><path d="M17.21,5.87a1.59,1.59,0,0,0-.07.39,1.32,1.32,0,0,0,1.33,1.31h0a1.32,1.32,0,0,0,1.33-1.3V6.21Z" transform="translate(-14)" style="fill:#f47474"/><path d="M23.53,6.75a.26.26,0,0,1-.26-.26v0a.26.26,0,0,1,.26-.25h0a.25.25,0,0,1,.26.25v0A.26.26,0,0,1,23.53,6.75Z" transform="translate(-14)" style="fill:#fff"/><path d="M18.47,6.75a.26.26,0,0,1-.26-.26v0a.26.26,0,0,1,.26-.25h0a.25.25,0,0,1,.26.25v0A.26.26,0,0,1,18.47,6.75Z" transform="translate(-14)" style="fill:#fff"/><path d="M22.45,4.7a.27.27,0,0,1-.26-.23.27.27,0,0,1,.24-.28L24.58,4a.26.26,0,0,1,.28.23.25.25,0,0,1-.23.28l-2.15.19Z" transform="translate(-14)" style="fill:#fff"/><path d="M19.55,4.7h0l-2.15-.19a.25.25,0,0,1-.23-.28A.26.26,0,0,1,17.42,4l2.15.2a.26.26,0,0,1,.24.27A.27.27,0,0,1,19.55,4.7Z" transform="translate(-14)" style="fill:#fff"/></g></svg>