<svg width="59" height="59" viewBox="0 0 59 59" fill="none" xmlns="http://www.w3.org/2000/svg">
<path d="M29.4667 58.9333C45.7407 58.9333 58.9333 45.7406 58.9333 29.4667C58.9333 13.1927 45.7407 0 29.4667 0C13.1927 0 0 13.1927 0 29.4667C0 45.7406 13.1927 58.9333 29.4667 58.9333Z" fill="#F2F2F2"/>
<path d="M17.1447 25.6473H25.4375V16.2901C25.4375 14.1613 27.1634 12.4414 29.2862 12.4414H29.641C31.7698 12.4414 33.4897 14.1673 33.4897 16.2901V25.6473H41.7824C43.9113 25.6473 45.6311 27.3732 45.6311 29.496C45.6311 31.6248 43.9052 33.3447 41.7824 33.3447H33.4957V42.6417C33.4957 44.7706 31.7698 46.4904 29.647 46.4904H29.2922C27.1634 46.4904 25.4435 44.7645 25.4435 42.6417V33.3447H17.1507C15.0219 33.3447 13.302 31.6188 13.302 29.496C13.296 27.3672 15.0219 25.6473 17.1447 25.6473Z" fill="white"/>
</svg>
