<svg width="36" height="34" viewBox="0 0 36 34" fill="none" xmlns="http://www.w3.org/2000/svg">
<path d="M35.8167 0.474369C35.6565 0.333813 35.4284 0.301203 35.2352 0.390853L0.311386 16.6174C0.123368 16.7048 0.00229223 16.8924 3.21405e-05 17.0997C-0.00222795 17.307 0.114866 17.4972 0.301055 17.5885L10.1844 22.4389C10.3657 22.5279 10.5818 22.5078 10.7436 22.3868L20.353 15.2047L12.8093 22.9643C12.7016 23.0751 12.6467 23.2267 12.6586 23.3806L13.4097 33.1624C13.4264 33.3791 13.5717 33.5645 13.7782 33.6324C13.8334 33.6504 13.8901 33.6593 13.9462 33.6593C14.1 33.6593 14.2496 33.5933 14.3536 33.4728L19.5994 27.394L26.0843 30.4925C26.225 30.5597 26.388 30.5625 26.531 30.5003C26.674 30.438 26.783 30.3168 26.8297 30.1681L35.9753 1.04014C36.0392 0.836737 35.9769 0.614925 35.8167 0.474369Z" fill="white"/>
</svg>
