<svg width="8" height="8" viewBox="0 0 8 8" fill="none" xmlns="http://www.w3.org/2000/svg">
<path d="M7.99733 0.738817C7.99668 0.330901 7.69084 0.000437585 7.31362 0H7.31322L0.683305 0.00446336C0.30584 0.00516349 0.000161863 0.336065 0 0.744243L0.00275166 5.58112C0.00299446 5.9893 0.309078 6.32003 0.686461 6.32003H0.686947L2.95117 6.31845C3.00191 6.31845 3.04901 6.34716 3.07524 6.39407L3.97382 8L4.87046 6.39293C4.89676 6.34584 4.94378 6.31714 4.99461 6.31705L7.3167 6.31556C7.69416 6.31478 7.99984 5.98387 8 5.5757L7.99733 0.738817ZM6.64165 4.39676H1.35844C1.27831 4.39676 1.21341 4.32657 1.21341 4.23993C1.21341 4.15337 1.27831 4.0831 1.35844 4.0831H6.64165C6.72177 4.0831 6.78667 4.15337 6.78667 4.23993C6.78667 4.32657 6.72177 4.39676 6.64165 4.39676ZM6.64165 3.27654H1.35844C1.27831 3.27654 1.21341 3.20635 1.21341 3.11971C1.21341 3.03316 1.27831 2.96288 1.35844 2.96288H6.64165C6.72177 2.96288 6.78667 3.03316 6.78667 3.11971C6.78667 3.20635 6.72177 3.27654 6.64165 3.27654ZM6.64165 2.15633H1.35844C1.27831 2.15633 1.21341 2.08614 1.21341 1.9995C1.21341 1.91294 1.27831 1.84267 1.35844 1.84267H6.64165C6.72177 1.84267 6.78667 1.91294 6.78667 1.9995C6.78667 2.08614 6.72177 2.15633 6.64165 2.15633Z" fill="white"/>
</svg>
