<svg width="16" height="16" viewBox="0 0 16 16" fill="none" xmlns="http://www.w3.org/2000/svg">
<path d="M8 16.0001C12.4183 16.0001 16 12.4184 16 8.00006C16 3.58175 12.4183 0 8 0C3.58172 0 0 3.58175 0 8.00006C0 12.4184 3.58172 16.0001 8 16.0001Z" fill="#009239"/>
<path d="M4.65526 6.96359H6.91051V4.41881C6.91051 3.83976 7.37527 3.375 7.95432 3.375H8.05337C8.63242 3.375 9.09718 3.83976 9.09718 4.41881V6.96359H11.3448C11.9239 6.96359 12.3886 7.42835 12.3886 8.0074C12.3886 8.58645 11.9239 9.05121 11.3448 9.05121H9.09718V11.5731C9.09718 12.1522 8.63242 12.6169 8.05337 12.6169H7.95432C7.37527 12.6169 6.91051 12.1522 6.91051 11.5731V9.05121H4.65526C4.07621 9.05121 3.61145 8.58645 3.61145 8.0074C3.61145 7.42835 4.07621 6.96359 4.65526 6.96359Z" fill="white"/>
</svg>
