<svg width="33" height="33" viewBox="0 0 33 33" fill="none" xmlns="http://www.w3.org/2000/svg">
    <circle cx="16.5" cy="16.5" r="16" stroke="#EDEDED"/>
    <g transform="translate(7.5 , 7)">
        <g clip-path="url(#clip0)">
            <path d="M18.1954 6.91976C17.8853 6.61141 17.3841 6.61279 17.0757 6.92277L7.55889 16.4911C6.32419 17.7258 4.31887 17.7258 3.08187 16.4894C1.8458 15.2527 1.8458 13.2474 3.08202 12.0112L12.8806 2.16115C13.6514 1.39034 14.9047 1.39034 15.6778 2.16282C16.4506 2.93568 16.4506 4.18878 15.6776 4.96186L7.56037 13.079C7.55985 13.0795 7.55941 13.0801 7.55889 13.0806C7.24965 13.3882 6.74988 13.3877 6.44128 13.0791C6.13215 12.77 6.13215 12.269 6.44128 11.9599L10.3594 8.04094C10.6685 7.73173 10.6685 7.23045 10.3593 6.92132C10.0501 6.61219 9.54878 6.61223 9.23965 6.92143L5.32159 10.8403C4.39416 11.7677 4.39416 13.2713 5.32166 14.1987C6.24912 15.1262 7.75268 15.1262 8.68017 14.1987C8.68125 14.1976 8.6821 14.1965 8.68314 14.1954L16.7971 6.0814C18.1886 4.68999 18.1886 2.43436 16.7971 1.04295C15.4056 -0.347649 13.1501 -0.347649 11.7595 1.04295L1.96092 10.893C0.107857 12.7461 0.107856 15.7537 1.96226 17.609C3.81788 19.4637 6.82552 19.4637 8.68003 17.6092L18.1984 8.03938C18.5067 7.72936 18.5053 7.22811 18.1954 6.91976Z" fill="#EDEDED"/>
        </g>
        <defs>
            <clipPath id="clip0">
                <rect width="19" height="19" fill="white"/>
            </clipPath>
        </defs>
    </g>
</svg>
