<svg xmlns="http://www.w3.org/2000/svg" viewBox="0 0 524.12 69.36"><g id="Слой_2" data-name="Слой 2"><g id="svg2"><g id="g4"><path id="path6" d="M0,0H524.12V69.36H0V0Z" style="fill:#fff;fill-rule:evenodd"/><path id="path12" d="M205.47,54.8c-10.57.17-13.4-12.77-13.05-22,.29-7.81,2-19.43,12.72-19.32,10.45.11,12.52,11.49,12.54,20.06C217.7,41.5,215.93,54.64,205.47,54.8Zm-48.62-.69-.08,4.18H179.9l.18-4.2L176.15,54c-2.35,0-2.88-.85-2.88-2.76v-16h0l8.55,0c.5,14,8.85,23,23,23,15.19,0,23.73-10.57,23.73-24.89,0-13.07-8.28-23.06-23-23.06-14.1,0-22.56,8-23.64,20.74h-8.68V16.38c0-1.58.6-1.65,2.31-1.75l4.24-.23v-4H156.78v4l4.62.23c1.6.09,2.3.17,2.3,1.75l0,34.76c0,2.25-.78,2.87-3.4,2.91l-3.5.06Zm75,0v4.24H255V54.08L251.05,54c-2.34,0-2.88-.85-2.87-2.76V35.9h20.67V51.13c0,2.25-.68,2.84-3.31,2.89l-3.5,0,0,4.24h23.13V54.08L281.27,54c-2.35,0-2.88-.85-2.88-2.76l0-34.87c0-1.58.6-1.65,2.31-1.75l4.23-.23v-4H262.29v4l4.24.23c1.61.09,2.31.17,2.31,1.75V31.46H248.19l0-15.09c0-1.58.6-1.65,2.31-1.75l4.24-.23v-4H232.08v4l4.23.23c1.61.09,2.31.17,2.31,1.75l0,34.76c0,2.25-.69,2.84-3.31,2.89l-3.5,0Zm76-37.7c0-1.58.6-1.65,2.31-1.75l4.24-.23v-4H291.72v4l4.24.23c1.6.09,2.31.17,2.31,1.75l0,34.76c0,2.25-.69,2.84-3.31,2.89l-3.5,0,0,4.24h23.13V54.08L310.7,54c-2.13,0-2.77-.71-2.87-2.25,0-.3,0-.61,0-.91l20.67-27.77,0,28.06c0,2.25-.69,2.84-3.31,2.89l-3.5,0v4.25h23.13V54.08L340.91,54c-2.34,0-2.88-.85-2.87-2.76l0-34.87c0-1.58.6-1.65,2.31-1.75l4.24-.23v-4H321.94v4l4.23.23c1.61.09,2.31.17,2.31,1.75v.31L307.83,44.45l0-28.08ZM385,51.13c.85,2.21-.14,2.84-2.77,2.89l-3.5,0v4.24h23.56V54.08l-3.68-.18A4.24,4.24,0,0,1,395,51.24L378.17,10.39H373l-16.9,40.85a4.24,4.24,0,0,1-3.56,2.66l-3.13.18,0,4.23H368l0-4.24L365.07,54c-1.88-.07-3.57-.78-2.76-2.83l11.05-28,11.62,28Zm54.95,0c.85,2.21-.14,2.84-2.76,2.89l-3.5,0,0,4.24h23.55l0-4.23-3.68-.18A4.24,4.24,0,0,1,450,51.24L433.17,10.36h-6.84L409.38,51.24a4.24,4.24,0,0,1-3.55,2.66l-3.13.18,0,4.22h18.61l0-4.23L418.37,54c-1.88-.07-3.56-.78-2.76-2.83l3.26-7.81h17.8l3.26,7.81Zm-19.33-12L427.77,22l7.17,17.18Zm38.87,14.9v4.27l24.33,0c9.71.07,18.9-4.24,19-15,0-7.23-3.26-11.39-9.9-13.16-5.06-1.35-11.74-.82-17-1l0-12.94c0-2.31,4.31-1.77,5.87-1.85,9.68-.17,13.74,2.41,14.49,12.19l4.43.19V10.35h-41l0,4,4.24.23c1.6.09,2.3.17,2.3,1.75l0,34.76c0,2.26-.69,2.84-3.31,2.89l-3.5,0Zm16.48-3,0-17.47c6.87-.16,18.88-.54,19,10.18.08,5.52-3.5,9-6.68,9.6a73.05,73.05,0,0,1-10.47.37c-2.11-.1-1.9-1-1.9-2.68Z" style="fill:#008034;fill-rule:evenodd"/><path id="path14" d="M49.32,38.47c4-13.13,12.28-19.11,45.84-28.14H26.65v48h3.43C39.24,53.39,46.56,47.63,49.32,38.47Z" style="fill:#008034;fill-rule:evenodd"/><path id="path16" d="M106.85,30.21c-3.95,13.13-12.44,19-46,28.05h68.5V10.31h-3.42c-9.17,4.89-16.33,10.74-19.09,19.9Z" style="fill:#008034;fill-rule:evenodd"/><path id="path18" d="M115.51,10.42c-.17,0-1.08.14-2.55.37l-.18,0h-.07l-.14,0c-1.16.17-2.6.4-4.25.7-3.27.6-7.4,1.4-11.86,2.58-1.83.48-3.76,1-5.69,1.63-1.34.42-2.67.9-4,1.36a69.24,69.24,0,0,0-12.37,5.63,37.64,37.64,0,0,0-9.44,7.11,32.81,32.81,0,0,0-4.17,5.19c-.17.26-.31.51-.48.78-.39.64-.71,1.3-1,1.92a96.33,96.33,0,0,1-4.7,8.62,27.86,27.86,0,0,1-2.65,3.48,30.58,30.58,0,0,1-5.82,5.23,62.81,62.81,0,0,1-5.59,3.28A167.75,167.75,0,0,0,57.4,55.21a129.69,129.69,0,0,0,12.46-3.74,74.32,74.32,0,0,0,14.71-7.24,33.25,33.25,0,0,0,8.74-7.8,22.8,22.8,0,0,0,2.18-3.08c2.73-4.85,4.55-10,8.75-14.54a40.12,40.12,0,0,1,3.41-3.37c.8-.69,1.67-1.31,2.53-1.92.56-.4,1.18-.75,1.78-1.14s1.37-.78,2.08-1.19c.47-.27,1-.52,1.47-.77Z" style="fill:#008034;fill-rule:evenodd"/></g></g></g></svg>