<svg width="17" height="17" viewBox="0 0 17 17" fill="none" xmlns="http://www.w3.org/2000/svg">
<path d="M8.49998 8.31412C10.3901 8.31412 11.9225 6.45296 11.9225 4.15708C11.9225 1.86116 11.4194 0 8.49998 0C5.58059 0 5.07739 1.86116 5.07739 4.15708C5.07739 6.45296 6.60977 8.31412 8.49998 8.31412Z" fill="#BEBEBE"/>
<path d="M2.03559 14.6614C2.035 14.5214 2.03442 14.622 2.03559 14.6614V14.6614Z" fill="#BEBEBE"/>
<path d="M14.9641 14.7708C14.9659 14.7324 14.9647 14.5049 14.9641 14.7708V14.7708Z" fill="#BEBEBE"/>
<path d="M14.9568 14.4936C14.8934 10.4941 14.3711 9.35449 10.374 8.6331C10.374 8.6331 9.81137 9.35007 8.49994 9.35007C7.18851 9.35007 6.62576 8.6331 6.62576 8.6331C2.67229 9.34662 2.11819 10.4693 2.04533 14.3637C2.03936 14.6817 2.03659 14.6984 2.03552 14.6615C2.03577 14.7306 2.03606 14.8586 2.03606 15.0816C2.03606 15.0816 2.98767 17 8.49994 17C14.0121 17 14.9638 15.0816 14.9638 15.0816C14.9638 14.9383 14.9639 14.8386 14.9641 14.7708C14.963 14.7937 14.9609 14.7494 14.9568 14.4936Z" fill="#BEBEBE"/>
</svg>
