<svg width="56" height="56" viewBox="0 0 56 56" fill="none" xmlns="http://www.w3.org/2000/svg">
<g clip-path="url(#clip0)">
<path d="M12.8674 5.70544C12.5919 5.05346 11.6438 5.0274 11.3439 5.67425C11.1939 5.9981 11.2712 6.39202 11.5336 6.63513C11.7997 6.88122 12.2065 6.92437 12.5196 6.74236C12.8726 6.53686 13.0264 6.08312 12.8674 5.70544Z" fill="#87DCFF"/>
<path d="M18.5284 5.70545C18.2464 5.03894 17.2727 5.03211 16.9912 5.70545C16.8489 6.04554 16.9566 6.44971 17.2445 6.67786C17.512 6.88977 17.8939 6.91285 18.1862 6.73896C18.5352 6.53131 18.6865 6.081 18.5284 5.70545Z" fill="#87DCFF"/>
<path d="M15.6979 5.70543C15.5693 5.4008 15.2694 5.1953 14.9374 5.19188C14.5709 5.18803 14.2406 5.43327 14.1329 5.78233C14.0334 6.10576 14.15 6.46849 14.4141 6.67784C14.6913 6.89744 15.0891 6.91282 15.3843 6.72099C15.715 6.50523 15.8517 6.0703 15.6979 5.70543Z" fill="#87DCFF"/>
<path d="M52.2338 1.75H11.1473C9.07044 1.75 7.3811 3.43976 7.3811 5.51617V20.1199C7.3811 20.5796 7.75366 20.9521 8.21338 20.9521C8.6731 20.9521 9.04608 20.5796 9.04608 20.1199V9.85315H33.8076V20.6847C33.8076 21.0021 33.9883 21.2922 34.2737 21.4319C34.3899 21.4892 34.5151 21.517 34.6398 21.517C34.821 21.517 35.0013 21.458 35.15 21.3427L45.6649 13.1942C45.8401 13.0588 45.9537 12.8588 45.9811 12.6392C46.0089 12.4196 45.9473 12.1983 45.811 12.0236C45.1813 11.2173 44.4763 10.4927 43.7111 9.85315H54.335V42.1628C54.335 43.321 53.3925 44.264 52.2338 44.264H28.1466V40.5944C29.2976 40.8917 30.4849 41.0425 31.6906 41.0425C39.4942 41.0425 45.8431 34.6941 45.8431 26.8909C45.8431 25.9932 45.7585 25.0943 45.5914 24.2202C45.5051 23.7686 45.0685 23.4729 44.6173 23.5588C44.1657 23.6451 43.8696 24.0813 43.9559 24.5329C44.1033 25.3045 44.1781 26.0979 44.1781 26.8909C44.1781 30.7489 42.4191 34.204 39.6608 36.4962L32.8364 27.0545L42.038 19.8994C42.5191 20.6095 42.9254 21.3666 43.2501 22.1587C43.4244 22.5842 43.9107 22.7876 44.3362 22.6133C44.7617 22.4385 44.9651 21.9523 44.7908 21.5268C44.3033 20.3386 43.6547 19.2205 42.8626 18.2032C42.5802 17.8405 42.0573 17.7751 41.695 18.0576L32.5228 25.1891V13.5719C32.5228 13.1122 32.1503 12.7392 31.6906 12.7392C23.8869 12.7392 17.5389 19.0876 17.5389 26.8909C17.5389 31.1296 19.394 35.0722 22.6432 37.7737V44.264H20.5437V39.0452C20.5437 38.5854 20.1711 38.2125 19.711 38.2125H15.873C15.4129 38.2125 15.0403 38.5854 15.0403 39.0452V44.264H12.8845V22.8953C12.8845 22.4351 12.5119 22.0626 12.0522 22.0626H8.21381C7.75409 22.0626 7.38153 22.4351 7.38153 22.8953V53.4318C7.38153 53.8915 7.75409 54.2641 8.21381 54.2641H12.0522C12.5119 54.2641 12.8845 53.8915 12.8845 53.4318V45.929H15.0403V53.4318C15.0403 53.8915 15.4129 54.2641 15.873 54.2641H19.711C20.1711 54.2641 20.5437 53.8915 20.5437 53.4318V45.929H22.6432V53.4318C22.6432 53.8915 23.0158 54.2641 23.4759 54.2641H27.3139C27.774 54.2641 28.1466 53.8915 28.1466 53.4318V45.929H52.2338C54.3103 45.929 56 44.2396 56 42.1628V5.51617C56 3.43976 54.3103 1.75 52.2338 1.75V1.75ZM9.04651 52.5991V23.7275H11.2195V52.5991H9.04651ZM16.7053 52.5991V39.8779H18.8787V52.5991H16.7053ZM19.2039 26.8909C19.2039 20.2856 24.3594 14.8618 30.8579 14.4315V26.8909C30.8579 27.0695 30.9168 27.2382 31.0176 27.3775L31.0164 27.3788L38.312 37.4729C36.3916 38.679 34.1212 39.3776 31.6906 39.3776C30.4793 39.3776 29.2903 39.205 28.1466 38.8661V32.3857C28.1466 31.9255 27.774 31.553 27.3139 31.553H23.4759C23.0158 31.553 22.6432 31.9255 22.6432 32.3857V35.4995C20.439 33.191 19.2039 30.1396 19.2039 26.8909ZM24.3082 52.5991V33.218H26.4816V52.5991H24.3082ZM35.4725 18.9864V8.27106C38.7529 8.48468 41.7757 9.9574 43.9628 12.4072L35.4725 18.9864ZM41.2246 8.18817C39.2263 7.14099 36.979 6.57874 34.6398 6.57874C34.1801 6.57874 33.8076 6.95172 33.8076 7.41144V8.18817H9.04608V5.51617C9.04608 4.35748 9.98859 3.41498 11.1473 3.41498H52.2338C53.3925 3.41498 54.335 4.35748 54.335 5.51617V8.18817H41.2246Z" fill="#87DCFF"/>
<path d="M4.67065 27.7231H0.832703C0.372559 27.7231 0 28.0961 0 28.5558V53.4318C0 53.8915 0.372559 54.2641 0.832703 54.2641H4.67065C5.13037 54.2641 5.50336 53.8915 5.50336 53.4318V46.704C5.50336 46.2443 5.13037 45.8713 4.67065 45.8713C4.21094 45.8713 3.83795 46.2443 3.83795 46.704V52.5991H1.66498V29.3881H3.83795V43.9286C3.83795 44.3883 4.21094 44.7613 4.67065 44.7613C5.13037 44.7613 5.50336 44.3883 5.50336 43.9286V28.5558C5.50336 28.0961 5.13037 27.7231 4.67065 27.7231Z" fill="#87DCFF"/>
<path d="M52.2886 40.2376H43.4643C43.0046 40.2376 42.6316 40.6106 42.6316 41.0703C42.6316 41.53 43.0046 41.903 43.4643 41.903H52.2886C52.7483 41.903 53.1209 41.53 53.1209 41.0703C53.1209 40.6106 52.7483 40.2376 52.2886 40.2376Z" fill="#87DCFF"/>
<path d="M52.2884 36.7141H46.1279C45.6682 36.7141 45.2957 37.0871 45.2957 37.5468C45.2957 38.0065 45.6682 38.3791 46.1279 38.3791H52.2884C52.7481 38.3791 53.1207 38.0065 53.1207 37.5468C53.1207 37.0871 52.7481 36.7141 52.2884 36.7141Z" fill="#87DCFF"/>
</g>
<defs>
<clipPath id="clip0">
<rect width="56" height="56" fill="white"/>
</clipPath>
</defs>
</svg>
