<svg width="56" height="56" viewBox="0 0 56 56" fill="none" xmlns="http://www.w3.org/2000/svg">
<path d="M52.5658 4.48438H3.4342C1.54065 4.48438 0 6.02502 0 7.91858V40.9041C0 42.7981 1.54065 44.3387 3.4342 44.3387H9.63525C10.0916 44.3387 10.4615 43.9688 10.4615 43.5125C10.4615 43.0562 10.0916 42.6866 9.63525 42.6866H3.4342C2.45154 42.6866 1.65216 41.8872 1.65216 40.9041V7.91858C1.65216 6.93591 2.45154 6.13654 3.4342 6.13654H52.5658C53.5485 6.13654 54.3483 6.93591 54.3483 7.91858V40.9041C54.3483 41.8872 53.5485 42.6866 52.5658 42.6866H37.0862C36.2787 42.6866 35.52 43.001 34.9492 43.5718L28.969 49.552C28.4345 50.0861 27.5655 50.0861 27.031 49.552L21.0508 43.5718C20.48 43.001 19.7213 42.6866 18.9138 42.6866H13.0771C12.6208 42.6866 12.2509 43.0562 12.2509 43.5125C12.2509 43.9688 12.6208 44.3387 13.0771 44.3387H18.9138C19.2799 44.3387 19.6238 44.481 19.8823 44.7399L25.8629 50.7205C26.4521 51.3093 27.2263 51.6041 28 51.6041C28.7737 51.6041 29.5479 51.3093 30.1371 50.7205L36.1177 44.7399C36.3762 44.481 36.7201 44.3387 37.0862 44.3387H52.5658C54.4594 44.3387 56 42.7981 56 40.9041V7.91858C56 6.02502 54.4594 4.48438 52.5658 4.48438Z" fill="#FFCDA3"/>
<path d="M50.7171 12.7593C51.1734 12.7593 51.543 12.3897 51.543 11.9334V10.0591C51.543 9.31482 50.938 8.70984 50.1937 8.70984H5.80627C5.06201 8.70984 4.45703 9.31482 4.45703 10.0591V38.6483C4.45703 39.3921 5.06201 39.9975 5.80627 39.9975H19.7221C20.8488 39.9975 21.9083 40.4363 22.7047 41.2327L27.1011 45.629C27.3557 45.8837 27.6949 46.0242 28.0551 46.0242C28.4157 46.0242 28.7545 45.8841 29.0092 45.629L33.4051 41.2331C34.2019 40.4363 35.261 39.9975 36.3881 39.9975H50.1937C50.938 39.9975 51.5434 39.3921 51.5434 38.6483V15.3475C51.5434 14.8912 51.1734 14.5217 50.7171 14.5217C50.2608 14.5217 49.8912 14.8912 49.8912 15.3475V38.3453H36.3881C34.8197 38.3453 33.3457 38.9559 32.237 40.065L28.0551 44.2465L23.8728 40.0646C22.7645 38.9559 21.2901 38.3453 19.7221 38.3453H6.10876V10.3616H49.8912V11.9334C49.8912 12.3897 50.2608 12.7593 50.7171 12.7593Z" fill="#FFCDA3"/>
<path d="M39.3459 26.1275L37.3785 19.8318C37.8862 19.5932 38.2838 19.1581 38.4729 18.625H39.2969C39.6852 18.625 40 18.3102 40 17.9219C40 17.5336 39.6852 17.2188 39.2969 17.2188H38.4728C38.1826 16.4004 37.401 15.8125 36.4844 15.8125C35.5677 15.8125 34.7862 16.4004 34.4959 17.2188H32.9976C32.766 16.7325 32.302 16.3776 31.75 16.2983V14.6406C31.75 13.736 31.014 13 30.1094 13H24.9531C24.0485 13 23.3125 13.736 23.3125 14.6406V17.2188H21.5041C21.2138 16.4004 20.4323 15.8125 19.5156 15.8125C18.599 15.8125 17.8174 16.4004 17.5272 17.2188H16.7031C16.3148 17.2188 16 17.5336 16 17.9219C16 18.3102 16.3148 18.625 16.7031 18.625H17.5272C17.7163 19.1581 18.1138 19.5932 18.6215 19.8318L16.6541 26.1275C16.2888 26.1527 16 26.4563 16 26.8281V27.7656C16 29.7041 17.5771 31.2812 19.5156 31.2812C21.4541 31.2812 23.0312 29.7041 23.0312 27.7656V26.8281C23.0312 26.4563 22.7425 26.1527 22.3771 26.1275L20.4097 19.8318C20.9174 19.5932 21.3149 19.1581 21.504 18.625H23.3125V20.6207C23.3125 21.9908 23.8097 23.2844 24.7188 24.2957V25.6971C24.4458 25.7937 24.25 26.0534 24.25 26.3594V36.2969C24.25 36.6852 24.5648 37 24.9531 37H31.0469C31.4352 37 31.75 36.6852 31.75 36.2969V26.3594C31.75 26.0534 31.5542 25.7937 31.2812 25.6971V24.2623L33.0022 22.1111C33.1019 21.9865 33.1562 21.8316 33.1562 21.6719V18.625H34.4959C34.685 19.158 35.0826 19.5932 35.5903 19.8318L33.6229 26.1274C33.2575 26.1527 32.9688 26.4563 32.9688 26.8281V27.7656C32.9688 29.7041 34.5459 31.2812 36.4844 31.2812C38.4229 31.2812 40 29.7041 40 27.7656V26.8281C40 26.4563 39.7112 26.1527 39.3459 26.1275ZM19.5156 17.2188C19.9033 17.2188 20.2188 17.5342 20.2188 17.9219C20.2188 18.3096 19.9033 18.625 19.5156 18.625C19.1279 18.625 18.8125 18.3096 18.8125 17.9219C18.8125 17.5342 19.1279 17.2188 19.5156 17.2188ZM21.625 27.7656C21.625 28.9287 20.6787 29.875 19.5156 29.875C18.3525 29.875 17.4062 28.9287 17.4062 27.7656V27.5312H21.625V27.7656ZM18.1283 26.125L19.5156 21.6854L20.903 26.125H18.1283ZM36.4844 17.2188C36.8721 17.2188 37.1875 17.5342 37.1875 17.9219C37.1875 18.3096 36.8721 18.625 36.4844 18.625C36.0967 18.625 35.7812 18.3096 35.7812 17.9219C35.7812 17.5342 36.0967 17.2188 36.4844 17.2188ZM24.7188 14.6406C24.7188 14.5114 24.8239 14.4062 24.9531 14.4062H30.1094C30.2386 14.4062 30.3438 14.5114 30.3438 14.6406V16.2812H28.4688C27.6835 16.2812 27.0098 16.7667 26.731 17.4531H25.4219C25.0342 17.4531 24.7188 17.1377 24.7188 16.75V14.6406ZM30.3438 35.5938H25.6562V27.0625H30.3438V35.5938ZM31.75 21.4252L30.0291 23.5764C29.9293 23.701 29.875 23.8559 29.875 24.0156V25.6562H26.125V24.0156C26.125 23.8292 26.0509 23.6503 25.919 23.5185C25.145 22.7444 24.7188 21.7153 24.7188 20.6207V18.7384C24.9388 18.8165 25.1754 18.8594 25.4219 18.8594H26.731C26.9766 19.4639 27.5284 19.9127 28.1931 20.011C27.7688 20.623 27.5312 21.3602 27.5312 22.1406C27.5312 22.5289 27.8461 22.8438 28.2344 22.8438C28.6227 22.8438 28.9375 22.5289 28.9375 22.1406C28.9375 21.2521 29.4312 20.4533 30.2259 20.056L30.4238 19.957C30.7155 19.8112 30.8686 19.484 30.7937 19.1666C30.7188 18.8492 30.4355 18.625 30.1094 18.625H28.4688C28.2103 18.625 28 18.4147 28 18.1562C28 17.8978 28.2103 17.6875 28.4688 17.6875H31.5156C31.6449 17.6875 31.75 17.7926 31.75 17.9219V21.4252ZM36.4844 21.6854L37.8717 26.125H35.0971L36.4844 21.6854ZM38.5938 27.7656C38.5938 28.9287 37.6475 29.875 36.4844 29.875C35.3213 29.875 34.375 28.9287 34.375 27.7656V27.5312H38.5938V27.7656Z" fill="#FFCDA3"/>
</svg>
