<svg width="27" height="27" viewBox="0 0 27 27" fill="none" xmlns="http://www.w3.org/2000/svg">
<path d="M26.2641 10.4002C26.2641 10.4003 26.2639 10.4007 26.2634 10.4014L26.2641 10.4002ZM26.1557 10.4997L20.0904 16.7757L19.8288 17.0464L19.8895 17.4179L21.3193 26.1647L13.9039 22.0821L13.5422 21.8829L13.1805 22.0821L5.68795 26.2071C5.66785 26.2164 5.65412 26.2198 5.64679 26.2212C5.64238 26.222 5.63941 26.2223 5.63775 26.2223L5.63508 26.2223C5.63499 26.2223 5.63498 26.2223 5.63502 26.2223C5.63506 26.2223 5.63515 26.2223 5.63529 26.2223L5.63502 26.2221L5.63294 26.2206C5.6319 26.2198 5.63081 26.2188 5.62976 26.2176L5.63334 26.1963L7.1099 17.4213L7.173 17.0463L6.9078 16.7738L0.790608 10.4879L0.765286 10.4619L0.737569 10.4384C0.733756 10.4352 0.730627 10.4323 0.728092 10.4298C0.729499 10.4268 0.73128 10.4235 0.733503 10.42C0.738029 10.4127 0.7434 10.4062 0.748929 10.4009C0.751672 10.3983 0.75407 10.3963 0.75605 10.3948L9.13574 9.17974L9.52464 9.12335L9.69964 8.77149L13.6041 0.921047L17.3369 8.75995L17.5064 9.11581L17.8956 9.17808L26.1557 10.4997Z" fill="#F2F2F2" stroke="#F2F2F2" stroke-width="1.5"/>
</svg>
