<?xml version="1.0" standalone="no"?>
<!DOCTYPE svg PUBLIC "-//W3C//DTD SVG 20010904//EN"
 "http://www.w3.org/TR/2001/REC-SVG-20010904/DTD/svg10.dtd">
<svg version="1.0" xmlns="http://www.w3.org/2000/svg"
 width="16.000000pt" height="16.000000pt" viewBox="0 0 16.000000 16.000000"
 preserveAspectRatio="xMidYMid meet">

<g transform="translate(0.000000,16.000000) scale(0.100000,-0.100000)"
fill="#008034" stroke="none">
<path d="M1 103 l0 -58 16 32 c18 36 66 63 112 63 17 0 31 5 31 10 0 6 -33 10
-80 10 l-80 0 1 -57z"/>
<path d="M91 116 c-23 -8 -39 -24 -51 -49 -21 -42 -25 -40 40 -21 11 3 29 23
39 45 21 43 21 43 -28 25z"/>
<path d="M135 81 c-21 -41 -53 -61 -97 -61 -21 0 -38 -4 -38 -10 0 -6 33 -10
80 -10 l80 0 0 55 c0 30 -2 55 -5 55 -2 0 -11 -13 -20 -29z"/>
</g>
</svg>
